<?xml version="1.0" encoding="utf-8"?>
<!-- Generator: Adobe Illustrator 27.5.0, SVG Export Plug-In . SVG Version: 6.00 Build 0)  -->
<svg version="1.1" id="Arrow" xmlns="http://www.w3.org/2000/svg" xmlns:xlink="http://www.w3.org/1999/xlink" x="0px" y="0px"
	 viewBox="0 0 99.3 99.3" style="enable-background:new 0 0 99.3 99.3;" xml:space="preserve">
<style type="text/css">
	.st0{fill:#141E28;}
</style>
<path class="st0" d="M74.3,51.4c0,0,0.1-0.1,0.1-0.1s0.1-0.1,0.1-0.1c0,0,0.1-0.1,0.1-0.1c0,0,0-0.1,0.1-0.1s0-0.1,0.1-0.1
	s0-0.1,0.1-0.1c0,0,0-0.1,0.1-0.1c0,0,0-0.1,0-0.1c0,0,0-0.1,0-0.1s0-0.1,0-0.1c0,0,0-0.1,0-0.2c0,0,0-0.1,0-0.1c0-0.2,0-0.4,0-0.5
	c0,0,0-0.1,0-0.1c0,0,0-0.1,0-0.2c0,0,0-0.1,0-0.1s0-0.1,0-0.1s0-0.1,0-0.1c0,0,0-0.1-0.1-0.1c0,0,0-0.1-0.1-0.1c0,0,0-0.1-0.1-0.1
	s0-0.1-0.1-0.1c0,0-0.1-0.1-0.1-0.1S74.4,48,74.4,48s-0.1-0.1-0.1-0.1c-0.1-0.1-0.1-0.1-0.2-0.2c0,0,0,0,0,0L55.2,28.8
	c-1.1-1.1-2.9-1.1-4,0s-1.1,2.9,0,3.9l14.1,14.1H27.1c-1.5,0-2.8,1.2-2.8,2.8s1.2,2.8,2.8,2.8h38.3L51.3,66.5
	c-1.1,1.1-1.1,2.9,0,3.9c0.5,0.6,1.3,0.8,2,0.8s1.4-0.3,2-0.8l18.9-18.9c0,0,0,0,0,0C74.2,51.5,74.3,51.5,74.3,51.4L74.3,51.4z"/>
</svg>
